<?xml version="1.0" encoding="UTF-8"?>
<svg id="Layer_2" data-name="Layer 2" xmlns="http://www.w3.org/2000/svg" viewBox="0 0 483.24 72.56">
  <defs>
    <style>
      .cls-1 {
        fill: #3b82f6;
      }

      .cls-2 {
        fill: #10b981;
      }

      .cls-3 {
        fill: #6366f1;
      }

      .cls-4 {
        fill: #ec4899;
      }

      .cls-5 {
        fill: #0f172a;
      }
    </style>
  </defs>
  <g id="Layer_1-2" data-name="Layer 1">
    <g>
      <polygon class="cls-2" points="42.64 0 42.64 12.63 55.27 12.63 55.27 21.04 23.16 21.04 23.16 12.63 34.22 12.63 34.22 0 42.64 0"/>
      <polygon class="cls-3" points="12.63 54.72 12.63 42.09 0 42.09 0 33.67 32.11 33.67 32.11 42.09 21.06 42.09 21.06 54.72 12.63 54.72"/>
      <polygon class="cls-1" points="0 12.63 12.63 12.63 12.63 0 21.04 0 21.04 32.11 12.63 32.11 12.63 21.06 0 21.06 0 12.63"/>
      <polygon class="cls-4" points="42.64 22.62 42.64 33.67 55.27 33.67 55.27 42.09 42.64 42.09 42.64 54.72 34.22 54.72 34.22 22.62 42.64 22.62"/>
    </g>
    <path class="cls-5" d="M117.73,54.72V15.44h11.42v7.07l-.99-1.38h1.26c1.09-2.06,2.79-3.75,5.08-5.06,2.29-1.31,4.79-1.97,7.49-1.97s5.2.63,7.34,1.89,3.68,3.01,4.62,5.25c1.58-2.45,3.53-4.25,5.86-5.41,2.33-1.16,4.86-1.74,7.58-1.74,4.74,0,8.31,1.36,10.72,4.07s3.61,6.51,3.61,11.41v25.14h-11.88v-22.96c0-2.62-.55-4.59-1.66-5.9-1.11-1.31-2.77-1.97-4.99-1.97s-3.96.85-5.37,2.54c-1.41,1.69-2.12,3.83-2.12,6.4v21.89h-11.96v-22.93c0-2.65-.55-4.64-1.66-5.96-1.11-1.32-2.76-1.99-4.95-1.99s-3.95.87-5.35,2.6-2.1,3.88-2.1,6.46v21.82h-11.96Z"/>
    <path class="cls-5" d="M209.63,56.05c-6.29,0-11.46-1.97-15.51-5.92s-6.08-8.97-6.08-15.05,2.03-11.17,6.09-15.09c4.06-3.92,9.23-5.88,15.49-5.88s11.43,1.97,15.49,5.9c4.06,3.94,6.09,8.96,6.09,15.07s-2.02,11.11-6.06,15.05c-4.04,3.95-9.22,5.92-15.53,5.92ZM209.63,46.04c2.83,0,5.19-1.03,7.09-3.09,1.9-2.06,2.85-4.69,2.85-7.87s-.96-5.87-2.87-7.91c-1.91-2.04-4.27-3.06-7.07-3.06s-5.2,1.02-7.11,3.06c-1.91,2.04-2.87,4.67-2.87,7.91s.95,5.81,2.85,7.87c1.9,2.06,4.27,3.09,7.13,3.09Z"/>
    <path class="cls-5" d="M86.5,56.05c-6.29,0-11.46-1.97-15.51-5.92s-6.08-8.97-6.08-15.05,2.03-11.17,6.09-15.09c4.06-3.92,9.23-5.88,15.49-5.88s11.43,1.97,15.49,5.9c4.06,3.94,6.09,8.96,6.09,15.07s-2.02,11.11-6.06,15.05c-4.04,3.95-9.22,5.92-15.53,5.92ZM86.5,46.04c2.83,0,5.19-1.03,7.09-3.09,1.9-2.06,2.85-4.69,2.85-7.87s-.96-5.87-2.87-7.91c-1.91-2.04-4.27-3.06-7.07-3.06s-5.2,1.02-7.11,3.06c-1.91,2.04-2.87,4.67-2.87,7.91s.95,5.81,2.85,7.87c1.9,2.06,4.27,3.09,7.13,3.09Z"/>
    <path class="cls-5" d="M237.98,15.44h11.42v7.26l-1.18-1.57h1.45c1.27-2.19,3.11-3.91,5.52-5.16,2.41-1.25,4.87-1.87,7.39-1.87,4.36,0,7.8,1.33,10.34,3.97,2.53,2.65,3.8,6.2,3.8,10.66v25.98h-11.96v-23.19c0-2.5-.61-4.39-1.82-5.69-1.21-1.3-2.97-1.95-5.29-1.95s-4.06.84-5.52,2.52c-1.46,1.68-2.2,3.76-2.2,6.23v22.08h-11.96V15.44Z"/>
    <path class="cls-5" d="M303.81,72.56c-2.9,0-5.48-.34-7.74-1.01-2.25-.67-4.27-1.67-6.06-2.98-1.78-1.31-3.69-3.53-5.73-6.67l9.09-4.66c1.27,1.99,2.37,3.35,3.29,4.09.92.74,1.96,1.3,3.13,1.68,1.17.38,2.42.57,3.75.57,3.34,0,5.88-.93,7.64-2.79s2.64-4.43,2.64-7.72v-3.82h-.27c-1.45,1.83-3.25,3.24-5.39,4.22-2.14.98-4.5,1.47-7.07,1.47-5.27,0-9.6-1.83-12.97-5.5-3.38-3.67-5.06-8.61-5.06-14.83s1.76-11.09,5.29-14.86c3.53-3.77,7.95-5.66,13.28-5.66,2.52,0,4.85.5,6.97,1.49,2.13.99,3.84,2.39,5.14,4.2h2.94l-2.67,2.87v-7.22h11.42v36.91c0,6.57-1.92,11.58-5.77,15.04-3.85,3.45-9.13,5.18-15.86,5.18ZM304.35,45.12c2.78,0,5.06-.99,6.86-2.96,1.8-1.97,2.69-4.57,2.69-7.78s-.9-5.74-2.69-7.68-4.08-2.9-6.86-2.9-5.08.97-6.9,2.9-2.73,4.51-2.73,7.72.9,5.96,2.69,7.85c1.8,1.9,4.11,2.85,6.93,2.85Z"/>
    <path class="cls-1" d="M342.67,54.72l-12.46-39.28h11.88l5.92,21.7.8,3.32h.27l.88-3.21,6.76-21.82h9.82l6.5,21.7.92,3.29h.27l.88-3.25,6.04-21.74h11.2l-12.53,39.28h-10.66l-7.03-22.77-.8-3.02h-.27l-.8,3.02-6.88,22.77h-10.7Z"/>
    <path class="cls-1" d="M414.06,56.09c-6.35,0-11.44-1.99-15.27-5.96-3.83-3.97-5.75-9.02-5.75-15.15s1.94-11.15,5.81-15.13,8.89-5.98,15.06-5.98c5.78,0,10.55,1.8,14.31,5.4,3.76,3.6,5.63,8.22,5.63,13.86v4.15h-35v-6h23.85c-.18-2.41-1.05-4.37-2.61-5.87-1.56-1.5-3.63-2.25-6.21-2.25-2.84,0-5.11,1.01-6.8,3.02s-2.54,4.8-2.54,8.37c0,3.87.99,6.93,2.98,9.17,1.99,2.24,4.63,3.37,7.94,3.37,1.47,0,2.78-.21,3.93-.62s2.18-.95,3.1-1.62,1.98-1.74,3.19-3.23l7.09,5.46c-1.86,2.44-3.65,4.24-5.38,5.42-1.73,1.18-3.62,2.07-5.67,2.67s-4.6.9-7.65.9Z"/>
    <path class="cls-1" d="M464.86,56.05c-2.67,0-5.11-.56-7.3-1.68-2.19-1.12-3.97-2.62-5.35-4.51h-2.94l2.67-2.87v7.72h-11.42V0h11.96v19.75h.27c1.32-1.73,3.08-3.11,5.25-4.13,2.18-1.02,4.53-1.53,7.05-1.53,5.3,0,9.65,1.9,13.07,5.69s5.12,8.83,5.12,15.09-1.73,11.3-5.18,15.25c-3.45,3.95-7.85,5.92-13.2,5.92ZM461.92,46.08c2.78,0,5.09-1.03,6.93-3.1s2.77-4.71,2.77-7.95-.93-5.87-2.79-7.91c-1.86-2.04-4.17-3.06-6.92-3.06s-5.02,1.01-6.9,3.04c-1.87,2.03-2.81,4.66-2.81,7.89s.93,5.92,2.79,7.99,4.17,3.1,6.92,3.1Z"/>
    <rect class="cls-5" x="99.61" y="15.44" width="10.41" height="39.28" rx=".45" ry=".45"/>
  </g>
</svg>